<?xml version="1.0" standalone="no"?>
<!DOCTYPE svg PUBLIC "-//W3C//DTD SVG 20010904//EN"
 "http://www.w3.org/TR/2001/REC-SVG-20010904/DTD/svg10.dtd">
<svg version="1.0" xmlns="http://www.w3.org/2000/svg"
 width="1134.000000pt" height="1134.000000pt" viewBox="0 0 1134.000000 1134.000000"
 preserveAspectRatio="xMidYMid meet">
<metadata>
Created by potrace 1.14, written by Peter Selinger 2001-2017
</metadata>
<g transform="translate(0.000000,1134.000000) scale(0.100000,-0.100000)"
fill="#000000" stroke="none">
<path d="M3983 9582 l-92 -3 -48 -72 c-70 -106 -177 -230 -282 -329 -279 -262
-625 -398 -1018 -399 l-112 -1 -3 -136 c-2 -76 -2 -444 0 -819 l2 -683 80 -39
c288 -141 451 -373 488 -694 14 -124 5 -646 -13 -764 -2 -11 -6 -72 -10 -135
-4 -62 -9 -124 -11 -138 -13 -69 -11 -534 2 -660 109 -1025 762 -1920 1864
-2555 250 -144 779 -388 840 -388 70 0 651 274 905 426 498 299 817 571 1174
1002 26 31 132 183 182 260 85 132 203 359 244 470 10 28 22 55 26 60 13 19
90 267 114 368 30 130 53 282 65 422 8 107 6 485 -4 595 -5 54 -10 119 -22
290 -3 47 -7 99 -10 115 -12 84 -16 498 -5 595 42 365 196 592 498 735 l73 35
2 727 c2 401 2 769 0 820 l-3 91 -112 1 c-309 1 -567 76 -813 236 -101 66
-116 78 -237 195 -82 79 -224 251 -287 348 l-15 23 -1685 2 c-927 1 -1726 1
-1777 -1z"/>
</g>
</svg>
